# File created by Blade
# Date/Time:  Wed Jan 21 18:34:34 2015
#---------------------------------------------------------
:version 1.10
:name HOM
:units
  mass 1.0
  length 1.000000
  angle deg
:documentation
     Acclaim Skeleton File
:root
   axis xyz
   order TX TY TZ RX RY RZ
   position 0.000000 0.000000 0.000000
   orientation 0 0 0
:bonedata
   begin
      id 1
      name RightUpLeg_dum
      direction -1.000000 0.000000 0.000000
      length 3.693983
      axis 0.0 0.0 0.0 xyz
   end
   begin
      id 2
      name LeftUpLeg_dum
      direction 1.000000 0.000000 0.000000
      length 3.693983
      axis 0.0 0.0 0.0 xyz
   end
   begin
      id 3
      name Spine_dum
      direction 0.000000 1.000000 0.000000
      length 2.392956
      axis 0.0 0.0 0.0 xyz
   end
   begin
      id 4
      name RightUpLeg
      direction 0.000000 -1.000000 0.000000
      length 15.795667
      axis 0.0 0.0 0.0 xyz
      dof rx ry rz
   end
   begin
      id 5
      name RightLeg
      direction 0.000000 -1.000000 0.000000
      length 14.766989
      axis 0.0 0.0 0.0 xyz
      dof rx ry rz
   end
   begin
      id 6
      name RightFoot
      direction 0.000000 -0.258819 0.965926
      length 4.962790
      axis 15.0 0.0 0.0 xyz
      dof rx ry rz
   end
   begin
      id 7
      name RightToeBase
      direction 0.000000 0.000000 1.000000
      length 2.952750
      axis 0.0 0.0 0.0 xyz
      dof rx ry rz
   end
   begin
      id 8
      name LeftUpLeg
      direction 0.000000 -1.000000 0.000000
      length 15.795667
      axis 0.0 0.0 0.0 xyz
      dof rx ry rz
   end
   begin
      id 9
      name LeftLeg
      direction 0.000000 -1.000000 0.000000
      length 14.766989
      axis 0.0 0.0 0.0 xyz
      dof rx ry rz
   end
   begin
      id 10
      name LeftFoot
      direction 0.000000 -0.258819 0.965926
      length 4.962790
      axis 15.0 0.0 0.0 xyz
      dof rx ry rz
   end
   begin
      id 11
      name LeftToeBase
      direction 0.000000 0.000000 1.000000
      length 2.952750
      axis 0.0 0.0 0.0 xyz
      dof rx ry rz
   end
   begin
      id 12
      name Spine
      direction 0.000000 1.000000 0.000000
      length 0.000000
      axis 0.0 0.0 0.0 xyz
      dof rx ry rz
   end
   begin
      id 13
      name Spine_dum1
      direction 0.000000 1.000000 0.000000
      length 13.207411
      axis 0.0 0.0 0.0 xyz
   end
   begin
      id 14
      name Spine_dum2
      direction 0.000000 1.000000 0.000000
      length 13.207411
      axis 0.0 0.0 0.0 xyz
   end
   begin
      id 15
      name Spine_dum3
      direction 0.000000 1.000000 0.000000
      length 19.250100
      axis 0.0 0.0 0.0 xyz
   end
   begin
      id 16
      name RightShoulder
      direction -1.000000 0.000000 0.000000
      length 8.140465
      axis 0.0 0.0 90.0 xyz
      dof rx ry rz
   end
   begin
      id 17
      name RightArm
      direction -1.000000 0.000000 0.000000
      length 10.649840
      axis 0.0 0.0 90.0 xyz
      dof rx ry rz
   end
   begin
      id 18
      name RightForeArm
      direction -1.000000 0.000000 0.000000
      length 8.304624
      axis 0.0 0.0 90.0 xyz
      dof ry rz rx
   end
   begin
      id 19
      name RightHand
      direction -1.000000 0.000000 0.000000
      length 0.000000
      axis 0.0 0.0 90.0 xyz
      dof rx ry rz
   end
   begin
      id 20
      name RightHand_dum1
      direction -1.000000 0.000000 0.000000
      length 3.937000
      axis 0.0 0.0 90.0 xyz
   end
   begin
      id 21
      name RightHand_dum2
      direction 0.000000 0.000000 0.000000
      length 0.000000
      axis 0.0 0.0 90.0 xyz
   end
   begin
      id 22
      name RightHandThumb1
      direction 0.000000 0.000000 1.000000
      length 3.937000
      axis 0.0 0.0 90.0 xyz
      dof rx rz ry
   end
   begin
      id 23
      name LeftShoulder
      direction 1.000000 0.000000 0.000000
      length 8.140465
      axis 0.0 0.0 -90.0 xyz
      dof rx ry rz
   end
   begin
      id 24
      name LeftArm
      direction 1.000000 0.000000 0.000000
      length 10.649840
      axis 0.0 0.0 -90.0 xyz
      dof rx ry rz
   end
   begin
      id 25
      name LeftForeArm
      direction 1.000000 0.000000 0.000000
      length 8.304624
      axis 0.0 0.0 -90.0 xyz
      dof ry rz rx
   end
   begin
      id 26
      name LeftHand
      direction 1.000000 0.000000 0.000000
      length 0.000000
      axis 0.0 0.0 -90.0 xyz
      dof rx ry rz
   end
   begin
      id 27
      name LeftHand_dum1
      direction 1.000000 0.000000 0.000000
      length 3.937000
      axis 0.0 0.0 -90.0 xyz
   end
   begin
      id 28
      name LeftHand_dum2
      direction 0.000000 0.000000 0.000000
      length 0.000000
      axis 0.0 0.0 -90.0 xyz
   end
   begin
      id 29
      name LeftHandThumb1
      direction 0.000000 0.000000 1.000000
      length 3.937000
      axis 0.0 0.0 -90.0 xyz
      dof rx rz ry
   end
   begin
      id 30
      name Head
      direction 0.000000 1.000000 0.000000
      length 4.527550
      axis 0.0 0.0 0.0 xyz
      dof rx ry rz
   end
:hierarchy
   begin
      root RightUpLeg_dum LeftUpLeg_dum Spine_dum
      RightUpLeg_dum RightUpLeg
      LeftUpLeg_dum LeftUpLeg
      Spine_dum Spine
      RightUpLeg RightLeg
      RightLeg RightFoot
      RightFoot RightToeBase
      LeftUpLeg LeftLeg
      LeftLeg LeftFoot
      LeftFoot LeftToeBase
      Spine Spine_dum1 Spine_dum2 Spine_dum3
      Spine_dum1 RightShoulder
      Spine_dum2 LeftShoulder
      Spine_dum3 Head
      RightShoulder RightArm
      RightArm RightForeArm
      RightForeArm RightHand
      RightHand RightHand_dum1 RightHand_dum2
      RightHand_dum2 RightHandThumb1
      LeftShoulder LeftArm
      LeftArm LeftForeArm
      LeftForeArm LeftHand
      LeftHand LeftHand_dum1 LeftHand_dum2
      LeftHand_dum2 LeftHandThumb1
   end

# File created by Blade
# Date/Time:  Wed Jan 21 18:34:41 2015
# Frame Rate: 120.000 fps
#------------------------------------------------------
:FULLY-SPECIFIED
:DEGREES
1210
root 2.753749 32.766679 -6.425050 43.129946 3.242624 1.859909
RightUpLeg -36.436756 -18.879909 8.103143
RightLeg -3.965787 -0.000000 0.000000
RightFoot -8.214578 -0.983166 22.624077
RightToeBase 21.361155 -0.000000 -0.000000
LeftUpLeg -38.079066 10.909417 -4.507690
LeftLeg 0.036493 -0.000000 -0.000000
LeftFoot -2.956456 -8.028551 -14.949323
LeftToeBase 3.118196 -0.000000 -0.000000
Spine -48.109523 -0.080114 -3.300552
RightShoulder -40.309058 49.819275 -90.214526
RightArm 43.001288 -8.810729 16.954825
RightForeArm 4.202811 -0.000000 3.154874
RightHand 12.361318 -0.000000 -11.227936
RightHandThumb1 -24.326973 -0.000000 -32.862282
LeftShoulder -17.157348 -26.669718 61.118048
LeftArm 56.364904 -30.947832 -11.353736
LeftForeArm 24.361607 0.000000 5.510775
LeftHand -27.094493 -0.000000 10.087016
LeftHandThumb1 -26.253704 0.000000 33.147579
Head 6.037217 -3.196942 8.536295
1211
root 2.757528 32.768326 -6.430728 43.121591 3.239837 1.862143
RightUpLeg -36.446449 -18.893515 8.102644
RightLeg -3.956592 -0.000000 0.000000
RightFoot -8.196804 -0.979963 22.597730
RightToeBase 21.373229 -0.000000 -0.000000
LeftUpLeg -38.081366 10.889129 -4.502403
LeftLeg 0.046628 -0.000000 -0.000000
LeftFoot -2.962119 -8.009616 -14.960096
LeftToeBase 3.181445 -0.000000 -0.000000
Spine -48.120404 -0.064130 -3.290243
RightShoulder -40.372257 49.840548 -90.282146
RightArm 43.060453 -8.900290 16.940028
RightForeArm 4.065288 0.000000 3.206269
RightHand 12.290780 -0.000000 -11.334040
RightHandThumb1 -24.326973 -0.000000 -32.862282
LeftShoulder -17.139746 -26.650313 61.128939
LeftArm 56.382470 -30.871133 -11.352796
LeftForeArm 24.440120 -0.000000 5.386560
LeftHand -27.156089 -0.000000 10.180308
LeftHandThumb1 -26.253704 0.000000 33.147579
Head 6.026732 -3.222655 8.513525
1212
root 2.760778 32.768652 -6.435863 43.117073 3.230741 1.861952
RightUpLeg -36.458374 -18.905753 8.106122
RightLeg -3.952196 -0.000000 0.000000
RightFoot -8.185598 -0.958621 22.585965
RightToeBase 21.374074 -0.000000 -0.000000
LeftUpLeg -38.086693 10.879899 -4.503521
LeftLeg 0.052345 -0.000000 -0.000000
LeftFoot -2.965177 -8.004742 -14.943037
LeftToeBase 3.177804 -0.000000 -0.000000
Spine -48.123716 -0.045550 -3.281221
RightShoulder -40.428314 49.839091 -90.335287
RightArm 43.107087 -8.939141 16.929218
RightForeArm 3.985867 -0.000000 3.283158
RightHand 12.324934 -0.000000 -11.328381
RightHandThumb1 -24.326973 -0.000000 -32.862282
LeftShoulder -17.124395 -26.599169 61.099026
LeftArm 56.401940 -30.871406 -11.313167
LeftForeArm 24.274999 -0.000000 5.352155
LeftHand -27.141022 0.000000 9.940976
LeftHandThumb1 -26.253704 0.000000 33.147579
Head 5.958304 -3.270406 8.474316
1213
root 2.763680 32.768690 -6.440566 43.112420 3.218027 1.861171
RightUpLeg -36.463566 -18.891375 8.089853
RightLeg -3.947176 -0.000000 0.000000
RightFoot -8.189630 -0.971007 22.590771
RightToeBase 21.406220 -0.000000 -0.000000
LeftUpLeg -38.088264 10.867486 -4.499788
LeftLeg 0.056922 -0.000000 -0.000000
LeftFoot -2.968526 -7.993149 -14.955043
LeftToeBase 3.165641 -0.000000 -0.000000
Spine -48.128049 -0.034567 -3.266277
RightShoulder -40.486636 49.845237 -90.392934
RightArm 43.146290 -8.956106 16.949216
RightForeArm 3.888176 0.000000 3.384298
RightHand 12.297203 -0.000000 -11.471590
RightHandThumb1 -24.326973 -0.000000 -32.862282
LeftShoulder -17.120490 -26.518057 61.087191
LeftArm 56.386228 -30.821970 -11.261456
LeftForeArm 24.421070 -0.000000 5.298935
LeftHand -27.124066 -0.000000 9.946245
LeftHandThumb1 -26.253704 0.000000 33.147579
Head 5.928362 -3.283040 8.437226
1214
root 2.766644 32.768745 -6.444918 43.106330 3.205102 1.864028
RightUpLeg -36.477194 -18.914273 8.097513
RightLeg -3.940918 -0.000000 0.000000
RightFoot -8.175388 -0.942471 22.592584
RightToeBase 21.423721 -0.000000 -0.000000
LeftUpLeg -38.093552 10.874138 -4.516488
LeftLeg 0.066856 -0.000000 -0.000000
LeftFoot -2.968970 -7.995873 -14.953207
LeftToeBase 3.168281 -0.000000 -0.000000
Spine -48.130951 -0.030354 -3.257089
RightShoulder -40.531992 49.854665 -90.428291
RightArm 43.171966 -8.950555 16.967908
RightForeArm 3.850401 -0.000000 3.530197
RightHand 12.327099 -0.000000 -11.534413
RightHandThumb1 -24.326973 -0.000000 -32.862282
LeftShoulder -17.107641 -26.475791 61.074778
LeftArm 56.371638 -30.846936 -11.259261
LeftForeArm 24.237213 -0.000000 5.386401
LeftHand -27.318497 -0.000000 9.973455
LeftHandThumb1 -26.253704 0.000000 33.147579
Head 5.851043 -3.282537 8.466663
1215
root 2.769500 32.768995 -6.450315 43.096970 3.194064 1.864344
RightUpLeg -36.476679 -18.898397 8.076954
RightLeg -3.938510 -0.000000 0.000000
RightFoot -8.165281 -0.961526 22.576689
RightToeBase 21.412038 -0.000000 -0.000000
LeftUpLeg -38.090508 10.849083 -4.503571
LeftLeg 0.074195 -0.000000 -0.000000
LeftFoot -2.982172 -7.967199 -14.960828
LeftToeBase 3.181723 -0.000000 -0.000000
Spine -48.128494 -0.015467 -3.245255
RightShoulder -40.612811 49.882415 -90.529211
RightArm 43.174285 -8.947071 17.037222
RightForeArm 3.741456 -0.000000 3.673623
RightHand 12.286716 -0.000000 -11.457083
RightHandThumb1 -24.326973 -0.000000 -32.862282
LeftShoulder -17.097228 -26.455205 61.054902
LeftArm 56.352197 -30.829283 -11.263108
LeftForeArm 24.348178 -0.000000 5.447884
LeftHand -27.334048 -0.000000 10.023030
LeftHandThumb1 -26.253704 0.000000 33.147579
Head 5.827240 -3.329916 8.433317
